<svg width={180} height={180} viewBox="0 0 180 180"  fill="none" xmlns="http://www.w3.org/2000/svg" >  
<path d="M173.25 90C176.978 90 180.026 86.9733 179.747 83.2559C178.409 65.4488 171.797 48.3849 160.679 34.2815C148.163 18.4058 130.667 7.20597 111.01 2.48671C91.3529 -2.23255 70.6794 -0.196388 52.3206 8.26711C33.9619 16.7306 18.9872 31.1285 9.80942 49.1408C0.631678 67.1532 -2.21456 87.7309 1.72932 107.558C5.67321 127.385 16.1775 145.307 31.5497 158.437C46.9218 171.566 66.2665 179.137 86.4666 179.931C104.412 180.636 122.103 175.955 137.296 166.571C140.468 164.612 141.124 160.367 138.933 157.351C136.742 154.335 132.534 153.695 129.337 155.612C116.619 163.237 101.911 167.027 86.9966 166.441C69.8265 165.766 53.3835 159.331 40.3172 148.171C27.2509 137.011 18.3222 121.778 14.9699 104.924C11.6176 88.0712 14.0369 70.5802 21.838 55.2697C29.6391 39.9592 42.3676 27.721 57.9725 20.527C73.5775 13.3331 91.15 11.6023 107.859 15.6137C124.567 19.6251 139.439 29.1449 150.077 42.6393C159.317 54.3606 164.896 68.4875 166.202 83.2585C166.531 86.9719 169.522 90 173.25 90Z" fill="#C7D2FE"/>
</svg>
